# xmcd
#
# Track frame offsets: 
#        150
#        16855
#        30100
#        46045
#        60007
#        76457
#        94030
#        108047
#        121912
#        143147
#
# Disc length: 2116 seconds
#
# Revision: 1
# Processed by: cddbd v1.5.2PL0 Copyright (c) Steve Scherf et al.
# Submitted via: ExactAudioCopy v0.95b4
#
DISCID=6008420a
DTITLE=Pam And Maggie - On The Edge
DYEAR=1992
DGENRE=Folk/Rock
TTITLE0=Homefires
TTITLE1=Gonna Be A Star
TTITLE2=Love In Another Time
TTITLE3=Nothing But Trouble
TTITLE4=Yes, I Love You
TTITLE5=On The Edge
TTITLE6=It's Not Easy
TTITLE7=Gonna Take Time
TTITLE8=Love Comes In Circes
TTITLE9=Jukebox Dancing
EXTD=
EXTT0=
EXTT1=
EXTT2=
EXTT3=
EXTT4=
EXTT5=
EXTT6=
EXTT7=
EXTT8=
EXTT9=
PLAYORDER=
